<?xml version="1.0" ?>
<!-- Uploaded to: SVG Repo, www.svgrepo.com, Generator: SVG Repo Mixer Tools -->
<svg width="800px" height="800px" viewBox="0 0 64 64" xmlns="http://www.w3.org/2000/svg">
<defs>
<style>.cls-1{fill:none;stroke:#000000;stroke-linejoin:round;stroke-width:2px;}</style>
</defs>
<title/>
<g data-name="Layer 20" id="Layer_20">
<polyline class="cls-1" points="30.26 56 30 62 6 62 4 16"/>
<line class="cls-1" x1="32" x2="31.22" y1="16" y2="34"/>
<rect class="cls-1" height="6" width="32" x="2" y="10"/>
<polyline class="cls-1" points="4 10 6 2 30 2 32 10"/>
<polyline class="cls-1" points="12 2 12 6 24 6 24 2"/>
<line class="cls-1" x1="5" x2="31" y1="26" y2="26"/>
<line class="cls-1" x1="6" x2="30" y1="58" y2="58"/>
<circle class="cls-1" cx="11" cy="32" r="2"/>
<circle class="cls-1" cx="23" cy="40" r="4"/>
<circle class="cls-1" cx="13" cy="50" r="2"/>
<path class="cls-1" d="M48.5,42.5h0a8.54,8.54,0,0,1,6-2.5H56v1.46a8.54,8.54,0,0,1-2.5,6h0a8.54,8.54,0,0,1-6,2.5H46V48.54A8.54,8.54,0,0,1,48.5,42.5Z"/>
<path class="cls-1" d="M43.5,42.5h0a8.54,8.54,0,0,0-6-2.5H36v1.46a8.54,8.54,0,0,0,2.5,6h0a8.54,8.54,0,0,0,6,2.5H46V48.54A8.54,8.54,0,0,0,43.5,42.5Z"/>
<line class="cls-1" x1="46" x2="46" y1="50" y2="56"/>
<circle class="cls-1" cx="46" cy="46" r="16"/>
<path class="cls-1" d="M54,23h0a6.32,6.32,0,0,0,4-4h0a6.32,6.32,0,0,0,4,4h0a6.32,6.32,0,0,0-4,4h0a6.32,6.32,0,0,0-4-4Z"/>
<path class="cls-1" d="M38,9h0a6.32,6.32,0,0,0,4-4h0a6.32,6.32,0,0,0,4,4h0a6.32,6.32,0,0,0-4,4h0a6.32,6.32,0,0,0-4-4Z"/>
</g>
</svg>