<?xml version="1.0" encoding="iso-8859-1"?>
<!-- Uploaded to: SVG Repo, www.svgrepo.com, Generator: SVG Repo Mixer Tools -->
<svg height="800px" width="800px" version="1.1" id="Layer_1" xmlns="http://www.w3.org/2000/svg" xmlns:xlink="http://www.w3.org/1999/xlink" 
	 viewBox="0 0 511.998 511.998" xml:space="preserve">
<path style="fill:#FFE477;" d="M125.988,219.676c1.728,0.296,3.545,0.235,5.35-0.243c6.726-1.782,10.735-8.68,8.951-15.406
	L101.795,58.781c-0.92-3.474-3.28-6.389-6.486-8.012L34.148,19.801c-6.21-3.145-13.789-0.659-16.933,5.549
	c-3.143,6.208-0.658,13.789,5.549,16.932l56.121,28.416l37.047,139.784C117.236,215.403,121.279,218.868,125.988,219.676z"/>
<path style="fill:#FFD422;" d="M115.986,112.324l24.303,91.702c1.783,6.726-2.224,13.624-8.95,15.406
	c-1.805,0.478-3.622,0.54-5.35,0.243c-4.709-0.808-8.753-4.274-10.056-9.195l-22.813-86.076
	C93.119,124.404,98.658,114.729,115.986,112.324z"/>
<path style="fill:#D1E7F8;" d="M212.737,205.882l1.397-31.068l0,0c1.061-23.592-18.246-23.845-18.246-23.845H21.512
	c0,0-19.306,0.253-18.246,23.845l0,0l13.173,292.977c0.003,0.086,0.962,24.034,22.96,24.034h138.603
	c21.997,0,22.956-23.948,22.96-24.034l9.954-221.374"/>
<path style="fill:#B9D8F4;" d="M48.976,467.791L35.803,174.814c-1.061-23.592,18.246-23.845,18.246-23.845H21.512
	c0,0-19.306,0.253-18.246,23.845l13.173,292.977c0.003,0.086,0.962,24.034,22.96,24.034h32.537
	C49.938,491.824,48.979,467.877,48.976,467.791z"/>
<path style="fill:#FFE477;" d="M42.748,451.365c0,0,0.624,14.513,12.645,14.513h109.125c12.02,0,12.645-14.513,12.645-14.513
	l10.546-236.972c0.722-16.065-13.972-16.163-13.972-16.163H46.175c0,0-14.695,0.098-13.972,16.163L42.748,451.365z"/>
<g>
	<path style="fill:#FFD422;" d="M86.558,419.129c-12.02,0-12.645-14.513-12.645-14.513l-9.184-206.386H46.175
		c0,0-14.695,0.098-13.972,16.163l10.546,236.972c0,0,0.624,14.513,12.645,14.513h109.125c12.02,0,12.645-14.513,12.645-14.513
		l1.435-32.235h-92.04V419.129z"/>
	<circle style="fill:#FFD422;" cx="104.219" cy="264.274" r="6.485"/>
	<circle style="fill:#FFD422;" cx="86.169" cy="234.189" r="7.205"/>
	<circle style="fill:#FFD422;" cx="138.474" cy="227.271" r="6.485"/>
	<circle style="fill:#FFD422;" cx="157.947" cy="253.25" r="7.205"/>
</g>
<g>
	<circle style="fill:#FFA733;" cx="128.297" cy="412.784" r="30.195"/>
	<circle style="fill:#FFA733;" cx="96.475" cy="359.947" r="35.809"/>
</g>
<path style="fill:#FFE477;" d="M368.157,210.165c-1.753,0-3.534-0.368-5.232-1.145c-6.329-2.894-9.112-10.37-6.218-16.697
	l62.492-136.648c1.494-3.268,4.313-5.742,7.747-6.801l65.515-20.184c6.653-2.051,13.702,1.681,15.751,8.331
	c2.048,6.65-1.682,13.702-8.331,15.75l-60.117,18.521l-60.144,131.51C377.506,207.433,372.934,210.165,368.157,210.165z"/>
<path style="fill:#FFD422;" d="M396.162,106.05l-39.455,86.274c-2.895,6.329-0.111,13.804,6.218,16.697
	c1.699,0.777,3.479,1.145,5.232,1.145c4.778,0,9.349-2.733,11.465-7.363l37.035-80.983
	C416.658,121.821,412.834,111.349,396.162,106.05z"/>
<path style="fill:#D1E7F8;" d="M479.736,205.882l1.397-31.068l0,0c1.061-23.592-18.246-23.845-18.246-23.845H288.51
	c0,0-19.306,0.253-18.246,23.845l0,0l13.173,292.977c0.003,0.086,0.962,24.034,22.96,24.034H445
	c21.997,0,22.956-23.948,22.96-24.034l9.954-221.374"/>
<path style="fill:#B9D8F4;" d="M315.975,467.791l-13.173-292.977c-1.061-23.592,18.246-23.845,18.246-23.845h-32.537
	c0,0-19.306,0.253-18.246,23.845l13.173,292.977c0.003,0.086,0.962,24.034,22.96,24.034h32.537
	C316.937,491.824,315.978,467.877,315.975,467.791z"/>
<path style="fill:#A4E276;" d="M309.747,451.365c0,0,0.624,14.513,12.645,14.513h109.125c12.02,0,12.645-14.513,12.645-14.513
	l10.546-236.972c0.722-16.065-13.972-16.163-13.972-16.163H313.174c0,0-14.695,0.098-13.972,16.163L309.747,451.365z"/>
<g>
	<path style="fill:#7ED63E;" d="M353.558,419.129c-12.02,0-12.645-14.513-12.645-14.513l-9.185-206.387h-18.555
		c0,0-14.695,0.098-13.972,16.163l10.546,236.972c0,0,0.624,14.513,12.645,14.513h109.125c12.02,0,12.645-14.513,12.645-14.513
		l1.435-32.235H353.558z"/>
	<circle style="fill:#7ED63E;" cx="372.969" cy="246.039" r="6.485"/>
	<circle style="fill:#7ED63E;" cx="399.176" cy="269.585" r="7.205"/>
	<circle style="fill:#7ED63E;" cx="405.475" cy="227.271" r="6.485"/>
	<circle style="fill:#7ED63E;" cx="424.938" cy="253.25" r="7.205"/>
</g>
<g>
	<circle style="fill:#5EAC24;" cx="392.041" cy="412.784" r="30.195"/>
	<circle style="fill:#5EAC24;" cx="356.689" cy="372.436" r="35.809"/>
</g>
<path style="fill:#FFE477;" d="M245.828,200.999c-1.935,0-3.902-0.406-5.777-1.263c-6.988-3.195-10.063-11.449-6.865-18.437
	l69.002-150.882c1.65-3.609,4.762-6.341,8.555-7.509l72.34-22.286c7.346-2.263,15.129,1.856,17.391,9.199
	c2.261,7.343-1.857,15.129-9.199,17.39l-66.379,20.45l-66.408,145.21C256.152,197.981,251.105,200.999,245.828,200.999z"/>
<path style="fill:#FFD422;" d="M276.751,86.037l-43.565,95.262c-3.196,6.988-0.122,15.242,6.865,18.437
	c1.875,0.858,3.841,1.263,5.777,1.263c5.275,0,10.323-3.018,12.659-8.129l40.894-89.419
	C299.382,103.45,295.16,91.887,276.751,86.037z"/>
<path style="fill:#D1E7F8;" d="M355.908,196.269l1.542-34.305l0,0c1.172-26.05-20.147-26.329-20.147-26.329H144.762
	c0,0-21.318,0.279-20.147,26.329l0,0l14.546,323.497c0.003,0.094,1.062,26.537,25.351,26.537h153.041
	c24.289,0,25.348-26.443,25.351-26.537l10.991-244.436"/>
<path style="fill:#B9D8F4;" d="M175.088,485.461l-14.546-323.497c-1.172-26.05,20.147-26.329,20.147-26.329h-35.926
	c0,0-21.318,0.279-20.147,26.329l14.546,323.497c0.003,0.094,1.062,26.537,25.351,26.537h35.926
	C176.15,511.998,175.091,485.556,175.088,485.461z"/>
<path style="fill:#FF3F62;" d="M168.211,467.325c0,0,0.69,16.025,13.963,16.025h120.493c13.272,0,13.963-16.025,13.963-16.025
	l11.644-261.659c0.797-17.739-15.428-17.846-15.428-17.846h-140.85c0,0-16.225,0.108-15.428,17.846L168.211,467.325z"/>
<g>
	<path style="fill:#FF0C38;" d="M216.586,431.731c-13.272,0-13.963-16.025-13.963-16.025l-10.142-227.887h-20.488
		c0,0-16.225,0.108-15.428,17.846l11.644,261.659c0,0,0.69,16.025,13.963,16.025h120.493c13.272,0,13.963-16.025,13.963-16.025
		l1.583-35.593L216.586,431.731L216.586,431.731z"/>
	<circle style="fill:#FF0C38;" cx="221.059" cy="228.672" r="7.161"/>
	<circle style="fill:#FF0C38;" cx="265.208" cy="229.291" r="7.957"/>
	<circle style="fill:#FF0C38;" cx="242.564" cy="258.637" r="7.161"/>
	<circle style="fill:#FF0C38;" cx="295.412" cy="248.569" r="7.957"/>
</g>
<g>
	<circle style="fill:#D80027;" cx="240.598" cy="400.74" r="50.611"/>
	<circle style="fill:#D80027;" cx="262.211" cy="327.462" r="39.54"/>
</g>
</svg>