<?xml version="1.0" ?>
<!-- Uploaded to: SVG Repo, www.svgrepo.com, Generator: SVG Repo Mixer Tools -->
<svg width="800px" height="800px" viewBox="0 0 64 64" xmlns="http://www.w3.org/2000/svg">
<defs>
<style>.cls-1{fill:#b0877c;}.cls-2{fill:#c9a89f;}.cls-3{fill:#8895b1;}.cls-4{fill:#eff3fe;}.cls-5{fill:#bcc2d7;}.cls-6{fill:#f24463;}</style>
</defs>
<g id="main">
<path class="cls-1" d="M58,55H6a1,1,0,0,0-1,1,7,7,0,0,0,7,7H52a7,7,0,0,0,7-7A1,1,0,0,0,58,55Z"/>
<rect class="cls-2" height="8" rx="3" width="62" x="1" y="49"/>
<path class="cls-3" d="M50,33.71a1,1,0,0,1,.12-1.41l6.57-5.47a1,1,0,0,0,.36-.77V21a1,1,0,0,0-1-1H52a1,1,0,0,1,0-2h4a3,3,0,0,1,3,3v5.06a3,3,0,0,1-1.08,2.31l-6.57,5.47A1,1,0,0,1,50,33.71Z"/>
<path class="cls-4" d="M50,13H14a3,3,0,0,0-3,3V26a21,21,0,0,0,42,0V16A3,3,0,0,0,50,13Z"/>
<path class="cls-5" d="M39.14,40.35A1,1,0,0,1,39.5,39a15.06,15.06,0,0,0,6.75-8.3,1,1,0,0,1,1.9.62,17,17,0,0,1-7.65,9.41A1,1,0,0,1,39.14,40.35Z"/>
<path class="cls-6" d="M39.34,21.71A5.59,5.59,0,0,0,32,21.09a5.59,5.59,0,0,0-7.34.62,5.89,5.89,0,0,0,0,8.19l6.62,6.8a1,1,0,0,0,1.44,0l6.62-6.8A5.89,5.89,0,0,0,39.34,21.71Z"/>
<path class="cls-5" d="M31.29,10.71a3.49,3.49,0,0,1,0-5.42c1-.94,1-1.64,0-2.58a1,1,0,0,1,1.42-1.42,3.49,3.49,0,0,1,0,5.42c-.95.94-.95,1.64,0,2.58a1,1,0,0,1-1.42,1.42Z"/>
<path class="cls-5" d="M21.29,10.71a3.49,3.49,0,0,1,0-5.42c.95-.94.95-1.64,0-2.58a1,1,0,0,1,1.42-1.42,3.49,3.49,0,0,1,0,5.42c-.95.94-.95,1.64,0,2.58a1,1,0,0,1-1.42,1.42Z"/>
<path class="cls-5" d="M41.29,10.71a3.49,3.49,0,0,1,0-5.42c1-.94,1-1.64,0-2.58a1,1,0,0,1,1.42-1.42,3.49,3.49,0,0,1,0,5.42c-1,.94-1,1.64,0,2.58a1,1,0,0,1-1.42,1.42Z"/>
</g>
</svg>